<svg xmlns="http://www.w3.org/2000/svg" viewBox="0 0 289.24 255.97"><defs><style>.cls-1{fill:#ff0;}.cls-2{fill:#fff;}</style></defs><title>typeB</title><g id="Layer_2" data-name="Layer 2"><g id="Layer_1-2" data-name="Layer 1"><path class="cls-1" d="M144.62,20a.52.52,0,0,1,.58.34l62,107.31,62,107.32a.67.67,0,0,1-.58,1H20.7a.52.52,0,0,1-.58-.33.53.53,0,0,1,0-.67l62-107.32L144,20.34a.52.52,0,0,1,.58-.34m0-20a20.48,20.48,0,0,0-17.9,10.34l-62,107.31L2.8,225a20.67,20.67,0,0,0,17.9,31H268.54a20.67,20.67,0,0,0,17.9-31l-62-107.32-62-107.31A20.48,20.48,0,0,0,144.62,0Z"/><ellipse class="cls-2" cx="144.62" cy="129.47" rx="10" ry="47.5"/><ellipse class="cls-2" cx="144.62" cy="203.97" rx="10" ry="9"/></g></g></svg>